<?xml version="1.0" encoding="utf-8"?>
<!-- Generator: Adobe Illustrator 24.0.1, SVG Export Plug-In . SVG Version: 6.00 Build 0)  -->
<svg version="1.1" id="Layer_1" xmlns="http://www.w3.org/2000/svg" xmlns:xlink="http://www.w3.org/1999/xlink" x="0px" y="0px"
	 viewBox="0 0 182.1 182.1" style="enable-background:new 0 0 182.1 182.1;" xml:space="preserve">
<style type="text/css">
	.st0{fill:#585858;}
	.st1{fill:#FFFFFF;}
	.st2{fill:#EAEAEA;}
</style>
<circle class="st0" cx="91.1" cy="91.1" r="86.1"/>
<path class="st2" d="M82.7,105.9H51.8l-6.1,14.3H34l27.7-61.6H73l27.8,61.6h-12L82.7,105.9z M78.9,96.9L67.3,70L55.7,96.9H78.9z"/>
<path class="st2" d="M129.8,120.1l-12.6-18c-0.5,0.1-1.3,0.1-2.4,0.1h-13.9v18H89.5V58.5h25.4c5.3,0,10,0.9,14,2.6s7,4.3,9.1,7.6
	c2.1,3.3,3.2,7.2,3.2,11.7c0,4.6-1.1,8.6-3.4,12c-2.3,3.3-5.5,5.8-9.7,7.5l14.2,20.3H129.8z M125.7,71.4c-2.6-2.1-6.4-3.2-11.4-3.2
	h-13.4v24.6h13.4c5,0,8.8-1.1,11.4-3.2c2.6-2.1,3.9-5.2,3.9-9.1C129.5,76.5,128.3,73.5,125.7,71.4z"/>
</svg>
